<?xml version="1.0" standalone="no"?>
<!DOCTYPE svg PUBLIC "-//W3C//DTD SVG 20010904//EN"
 "http://www.w3.org/TR/2001/REC-SVG-20010904/DTD/svg10.dtd">
<svg version="1.0" xmlns="http://www.w3.org/2000/svg"
 width="253.000000pt" height="279.000000pt" viewBox="0 0 253.000000 279.000000"
 preserveAspectRatio="xMidYMid meet">

<g transform="translate(0.000000,279.000000) scale(0.100000,-0.100000)"
fill="#000000" stroke="none">
<path d="M762 2768 c-18 -18 -14 -55 8 -76 18 -17 20 -34 23 -253 l2 -234 3
237 c2 226 3 238 22 248 13 7 20 21 20 38 0 33 -16 52 -45 52 -12 0 -26 -5
-33 -12z"/>
<path d="M870 2510 c-26 -26 -25 -32 5 -68 22 -26 25 -40 28 -133 l3 -104 2
112 c2 101 4 113 22 123 27 14 26 55 -2 74 -29 20 -34 20 -58 -4z"/>
<path d="M1238 2459 c-25 -14 -24 -65 2 -79 11 -6 20 -18 21 -28 0 -13 2 -12
9 4 4 12 15 24 23 27 24 9 28 46 6 68 -21 21 -36 23 -61 8z"/>
<path d="M1956 2324 c-22 -21 -20 -47 4 -69 17 -16 20 -32 22 -124 l2 -106 5
105 c5 91 9 108 29 128 28 28 28 47 0 66 -28 20 -43 20 -62 0z"/>
<path d="M1263 2265 c0 -33 2 -45 4 -27 2 18 2 45 0 60 -2 15 -4 0 -4 -33z"/>
<path d="M557 2169 c-32 -44 13 -93 58 -63 30 20 33 59 6 74 -29 15 -48 12
-64 -11z"/>
<path d="M2088 2179 c-25 -14 -24 -65 2 -79 18 -9 20 -23 23 -153 l3 -142 2
141 c2 127 4 143 22 159 24 22 26 48 4 69 -18 18 -32 20 -56 5z"/>
<path d="M754 2128 c-42 -26 -322 -267 -328 -283 -3 -9 -6 -362 -6 -785 0
-741 1 -769 19 -791 l19 -24 524 0 c415 0 535 3 580 14 32 8 55 18 52 22 -3 5
1 6 9 3 8 -3 21 1 28 8 8 7 20 14 28 16 21 4 357 288 381 322 30 42 60 142 59
193 -1 36 -3 32 -14 -28 -16 -90 -48 -157 -93 -196 -39 -34 -126 -79 -155 -79
-10 0 -16 -4 -13 -9 3 -5 -224 -9 -537 -10 l-543 -2 -19 22 c-19 20 -20 43
-23 783 -2 761 -2 763 19 789 l20 27 437 0 c351 0 449 -3 500 -15 117 -28 188
-78 228 -163 25 -51 28 -70 31 -192 3 -97 0 -150 -10 -188 -16 -60 -6 -58 14
3 8 26 12 86 11 172 -1 107 -6 142 -23 189 -38 100 -109 160 -229 192 -76 21
-934 29 -966 10z m-247 -1864 c-3 -3 -12 -4 -19 -1 -8 3 -5 6 6 6 11 1 17 -2
13 -5z"/>
<path d="M795 1305 c0 -412 1 -583 2 -378 2 204 2 542 0 750 -1 208 -2 41 -2
-372z"/>
<path d="M901 2040 c-1 -23 28 -60 47 -60 13 1 11 6 -9 23 -15 12 -29 29 -32
37 -5 13 -6 13 -6 0z"/>
<path d="M1263 2015 c0 -22 2 -30 4 -17 2 12 2 30 0 40 -3 9 -5 -1 -4 -23z"/>
<path d="M1530 2041 c0 -6 14 -25 30 -43 17 -18 30 -27 30 -20 0 6 9 21 20 32
31 31 24 40 -30 40 -27 0 -50 -4 -50 -9z"/>
<path d="M993 1914 c-10 -4 -13 -135 -13 -604 0 -329 3 -600 8 -602 4 -2 156
-1 337 2 l330 6 -315 2 c-173 1 -321 6 -328 11 -10 6 -13 71 -15 292 l-2 284
290 5 c160 3 321 2 360 -2 153 -17 203 -75 215 -248 l7 -95 1 75 c2 79 -16
165 -42 205 -22 34 -81 62 -160 76 l-67 13 28 14 c76 39 93 86 93 254 0 73 -5
150 -10 170 -16 56 -54 94 -118 118 -51 19 -82 22 -322 26 -146 2 -271 1 -277
-2z m608 -45 c50 -24 60 -33 83 -82 23 -50 26 -67 26 -174 0 -183 -18 -224
-114 -262 -48 -20 -67 -21 -326 -19 l-275 3 -3 260 c-1 143 0 270 3 283 l6 24
272 -4 c270 -3 272 -3 328 -29z"/>
<path d="M1190 1815 c0 -8 5 -15 10 -15 6 0 10 7 10 15 0 8 -4 15 -10 15 -5 0
-10 -7 -10 -15z"/>
<path d="M1581 1770 c-3 -19 -3 -71 -2 -115 3 -70 6 -83 29 -107 14 -15 28
-26 31 -23 2 3 -7 18 -22 33 -25 26 -26 34 -30 137 -1 61 -4 94 -6 75z"/>
<path d="M1235 1728 c-3 -8 -4 -61 -3 -119 l3 -104 111 -3 c98 -2 114 0 135
17 22 17 24 27 24 95 0 65 -3 79 -23 98 -20 20 -34 23 -132 26 -88 3 -111 1
-115 -10z"/>
<path d="M1190 1415 c0 -8 5 -15 10 -15 6 0 10 7 10 15 0 8 -4 15 -10 15 -5 0
-10 -7 -10 -15z"/>
<path d="M2110 1568 c-3 -103 -2 -184 3 -179 4 4 6 88 5 187 l-3 179 -5 -187z"/>
<path d="M1862 1578 c-14 -14 -17 -52 -3 -44 7 5 22 56 17 56 -1 0 -7 -5 -14
-12z"/>
<path d="M1873 1451 c-29 -24 -29 -31 2 -31 13 0 50 -11 82 -25 50 -22 54 -22
33 -5 -14 11 -42 25 -62 30 -40 11 -45 19 -26 38 19 19 -5 13 -29 -7z"/>
<path d="M2042 1333 c14 -18 32 -49 38 -68 7 -20 14 -34 17 -32 9 9 -34 92
-58 112 -21 18 -21 17 3 -12z"/>
<path d="M1850 1336 c0 -8 5 -18 10 -21 6 -3 10 3 10 14 0 12 -4 21 -10 21 -5
0 -10 -6 -10 -14z"/>
<path d="M1962 1247 c-22 -23 -22 -29 -19 -228 l2 -204 3 204 c2 195 3 206 24
228 12 13 19 23 16 23 -2 0 -14 -11 -26 -23z"/>
<path d="M1190 1225 c0 -8 5 -15 10 -15 6 0 10 7 10 15 0 8 -4 15 -10 15 -5 0
-10 -7 -10 -15z"/>
<path d="M1371 1224 c0 -11 3 -14 6 -6 3 7 2 16 -1 19 -3 4 -6 -2 -5 -13z"/>
<path d="M1704 1015 c0 -121 2 -169 3 -107 2 62 2 161 0 220 -1 59 -3 8 -3
-113z"/>
<path d="M2101 1204 c0 -11 3 -14 6 -6 3 7 2 16 -1 19 -3 4 -6 -2 -5 -13z"/>
<path d="M1234 1137 c-2 -7 -3 -66 -2 -131 l3 -119 165 2 c197 2 201 4 208
100 6 90 -3 128 -38 146 -39 20 -328 22 -336 2z"/>
<path d="M2113 975 c0 -33 2 -45 4 -27 2 18 2 45 0 60 -2 15 -4 0 -4 -33z"/>
<path d="M329 844 c-11 -14 -14 -74 -15 -303 0 -157 2 -342 6 -411 4 -83 7 14
8 286 1 300 5 413 14 422 6 6 9 14 6 17 -3 3 -11 -2 -19 -11z"/>
<path d="M1190 805 c0 -8 5 -15 10 -15 6 0 10 7 10 15 0 8 -4 15 -10 15 -5 0
-10 -7 -10 -15z"/>
<path d="M1365 811 c-3 -5 -1 -12 5 -16 5 -3 10 1 10 9 0 18 -6 21 -15 7z"/>
<path d="M1944 715 c0 -49 1 -71 3 -48 2 23 2 64 0 90 -2 26 -3 8 -3 -42z"/>
<path d="M1690 730 l-35 -7 37 -2 c20 0 40 4 43 9 7 11 7 11 -45 0z"/>
<path d="M1856 703 c-9 -28 -4 -113 5 -113 5 0 9 29 9 65 0 66 -4 80 -14 48z"/>
<path d="M1703 610 c0 -25 2 -35 4 -22 2 12 2 32 0 45 -2 12 -4 2 -4 -23z"/>
<path d="M977 633 c-11 -10 -8 -61 3 -68 6 -4 10 10 10 34 0 42 -2 46 -13 34z"/>
<path d="M1190 600 c0 -22 5 -40 10 -40 6 0 10 18 10 40 0 22 -4 40 -10 40 -5
0 -10 -18 -10 -40z"/>
<path d="M1373 605 c0 -22 2 -30 4 -17 2 12 2 30 0 40 -3 9 -5 -1 -4 -23z"/>
<path d="M2114 400 c0 -107 2 -151 3 -97 2 53 2 141 0 195 -1 53 -3 9 -3 -98z"/>
<path d="M1704 125 c0 -66 1 -92 3 -57 2 34 2 88 0 120 -2 31 -3 3 -3 -63z"/>
<path d="M793 90 c0 -47 2 -66 4 -42 2 23 2 61 0 85 -2 23 -4 4 -4 -43z"/>
<path d="M1373 90 c0 -47 2 -66 4 -42 2 23 2 61 0 85 -2 23 -4 4 -4 -43z"/>
</g>
</svg>
